REM MD5 e0cd2daf4b98570cf0537d5168d4977e
FILE "Hugo (Scandinavia) (Da,Fi).bin" BINARY
  TRACK 01 MODE2/2352
    INDEX 01 00:00:00
  TRACK 02 AUDIO
    INDEX 00 47:14:03
    INDEX 01 47:16:03
  TRACK 03 AUDIO
    INDEX 00 49:25:32
    INDEX 01 49:27:32
  TRACK 04 AUDIO
    INDEX 00 51:06:05
    INDEX 01 51:08:05
  TRACK 05 AUDIO
    INDEX 00 52:20:28
    INDEX 01 52:22:28
REM LEADOUT 55:22:29
